<?xml version="1.0" encoding="utf-8"?>
<svg xmlns="http://www.w3.org/2000/svg" viewBox="229.615 94.9214 434.4852 302.3099" width="434.485px" height="302.31px">
  <path class="cls-0" d="M 289.478 154.83 L 288.58 154.231 L 249.37 154.231 L 247.574 154.83 L 247.574 232.053 L 229.615 232.053 L 229.615 267.671 L 247.873 267.671 L 247.873 395.179 L 288.879 395.179 L 288.879 267.671 L 332.28 267.671 L 332.28 230.855 L 289.478 230.855 L 289.478 154.83 Z" style="fill: rgb(50, 178, 228); stroke-width: 1;" transform="matrix(0.9999999999999999, 0, 0, 0.9999999999999999, 0, 0)"/>
  <path class="cls-0" d="M 466.972 96.756 L 466.972 155.721 L 565.147 155.721 L 565.147 218.278 L 465.775 218.278 L 465.775 395.173 C 465.775 395.173 660.361 426.476 664.052 244.932 C 667.665 67.246 466.972 96.756 466.972 96.756 Z M 561.389 289.819 C 556.803 312.117 524.24 349.203 514.063 359.081 C 514.063 359.081 547.051 308.359 536.018 307.383 C 518.742 306.407 510.599 296.673 510.212 284.383 C 509.266 268.556 522.806 260.11 534.266 259.958 C 555.49 259.676 564.176 276.271 561.389 289.819 Z" style="fill: rgb(50, 178, 228); stroke-width: 1;" transform="matrix(0.9999999999999999, 0, 0, 0.9999999999999999, 0, 0)"/>
  <path class="cls-0" d="M 363.109 96.833 L 363.109 395.383 L 412.197 395.383 L 411.898 96.833 C 411.898 96.833 411 96.531 363.11 96.833" style="fill: rgb(50, 178, 228); stroke-width: 1;" transform="matrix(0.9999999999999999, 0, 0, 0.9999999999999999, 0, 0)"/>
</svg>
